<?xml version="1.0" encoding="UTF-8"?>
<svg id="Capa_2" data-name="Capa 2" xmlns="http://www.w3.org/2000/svg" viewBox="0 0 430.71 432">
  <defs>
    <style>
      .cls-1 {
        fill: #d2a598;
        stroke-width: 0px;
      }
    </style>
  </defs>
  <path class="cls-1" d="m68.97,230.88l16.91,16.87-.86-158.83h-16.06v141.96Zm33.71-82.07l58.29-59.89h-5.18l-66.91,68.74,62.58,73.22h21.28l-70.06-82.07Z"/>
  <path class="cls-1" d="m13.33,170.91c0-16.06,11.07-29.15,30.51-29.15s31.64,9.28,31.64,9.28l-.24-4.76s-13.56-8.38-31.64-8.38S.66,148.78.66,177.03c0,50.62,72.32,31.64,72.32,76.37,0,21.94-16.72,32.77-34.8,32.77-19.45,0-30.28-6.54-38.19-12.67v5.23s13.8,11.07,38.19,11.07,47.7-16.95,47.7-42.05c0-50.62-72.56-35.69-72.56-76.84Z"/>
  <g>
    <path class="cls-1" d="m296.69,129.08c.18-.18.05-.6-.29-.95-.33-.35-.75-.49-.92-.31l-34.35,34.55c.38.45.76.89,1.12,1.35l34.44-34.64Z"/>
    <rect class="cls-1" x="298.37" y="123.25" width="4.53" height="1.83" rx=".89" ry=".89" transform="translate(9.49 269.2) rotate(-48.92)"/>
    <path class="cls-1" d="m292.16,300.97c.18.19.63.07,1-.27s.53-.76.35-.95l-36.44-38.37c-.43.43-.87.85-1.31,1.27l36.39,38.32Z"/>
    <path class="cls-1" d="m297.13,302.87h.06c.51,0,.92.41.92.92v2.87c0,.51-.41.92-.92.92h-.06c-.51,0-.92-.41-.92-.92v-2.86c0-.51.41-.92.92-.92Z" transform="translate(-128.69 316.07) rotate(-47.23)"/>
    <path class="cls-1" d="m304.76,357.69c.31.42.9.51,1.32.2s.51-.9.2-1.32l-62.8-84.83c-.55.32-1.11.61-1.67.91l62.95,85.04Z"/>
    <path class="cls-1" d="m284.7,345.81c.22.35.69.45,1.04.22.35-.22.45-.69.22-1.04l-46.07-71.35c-.45.23-.91.43-1.37.65l46.17,71.52Z"/>
    <path class="cls-1" d="m288.63,349.81c-.34.28-.39.78-.12,1.12l1.65,2.03c.28.34.78.39,1.12.12s.39-.78.12-1.12l-1.65-2.03c-.28-.34-.78-.39-1.12-.12Z"/>
    <path class="cls-1" d="m290.97,371.87c.28.48.9.64,1.38.36l.04-.02c.48-.28.64-.9.36-1.38l-56.18-95.62c-.64.28-1.29.53-1.93.79l56.33,95.87Z"/>
    <rect class="cls-1" x="294.41" y="374.44" width="2.09" height="5.28" rx="1.02" ry="1.02" transform="translate(-150.27 201.54) rotate(-30.42)"/>
    <path class="cls-1" d="m294.7,395.84c.3.55,1,.75,1.55.45l.13-.07c.55-.3.75-1,.45-1.55l-65.04-117.57c-.77.28-1.55.57-2.32.82l65.23,117.92Z"/>
    <path class="cls-1" d="m301.3,400.9h.16c.64,0,1.15.52,1.15,1.15v4.01c0,.64-.52,1.15-1.15,1.15h-.15c-.64,0-1.15-.52-1.15-1.15v-4.01c0-.64.52-1.15,1.15-1.15Z" transform="translate(-157.76 196.01) rotate(-28.91)"/>
    <path class="cls-1" d="m257.56,342.93c.14.31.5.45.8.32s.43-.49.29-.8l-29.8-64.34c-.38.12-.76.23-1.15.35l29.86,64.47Z"/>
    <path class="cls-1" d="m262.81,348.5l-1.4-2.34c-.23-.39-.73-.53-1.11-.31-.38.22-.5.72-.26,1.11l1.4,2.34c.23.39.73.53,1.11.31s.5-.72.26-1.11Z"/>
    <path class="cls-1" d="m263.88,357.86c.23.39.73.53,1.11.31.38-.22.5-.72.26-1.11l-1.4-2.34c-.23-.39-.73-.53-1.11-.31-.38.22-.5.72-.26,1.11l1.4,2.34Z"/>
    <path class="cls-1" d="m262.12,372.96c.19.46.73.68,1.19.49l.06-.02c.46-.19.68-.73.49-1.19l-38.74-93.02c-.62.17-1.23.33-1.84.48l38.84,93.26Z"/>
    <path class="cls-1" d="m265.44,375.76h.06c.51,0,.92.41.92.92v2.87c0,.51-.41.92-.92.92h-.06c-.51,0-.92-.41-.92-.92v-2.87c0-.51.41-.92.92-.92Z" transform="translate(-125.01 131.19) rotate(-22.62)"/>
    <path class="cls-1" d="m237.42,332.27c.08.25.54.32,1.02.17h0c.48-.15.8-.47.72-.72l-17.62-51.59c-.6.14-1.19.27-1.79.4l17.67,51.74Z"/>
    <path class="cls-1" d="m240.15,335.86h.06c.51,0,.92.41.92.92v2.87c0,.51-.41.92-.92.92h-.06c-.51,0-.92-.41-.92-.92v-2.87c0-.51.41-.92.92-.92Z" transform="translate(-111.61 118.39) rotate(-22.62)"/>
    <path class="cls-1" d="m251.85,396.25c.17.55.75.85,1.3.68s.85-.75.68-1.3l-35.8-114.75c-.69.14-1.37.26-2.05.38l35.87,114.98Z"/>
    <path class="cls-1" d="m256.66,404.05l-1.04-3.33c-.17-.55-.76-.86-1.31-.69-.55.17-.86.76-.69,1.31l1.04,3.33c.17.55.76.86,1.31.69.55-.17.86-.76.69-1.31Z"/>
    <path class="cls-1" d="m258.27,410.23c-.17-.55-.76-.86-1.31-.69-.55.17-.86.76-.69,1.31l.76,2.44c.17.55.76.86,1.31.69.55-.17.86-.76.69-1.31l-.76-2.44Z"/>
    <path class="cls-1" d="m244.63,396.52c.15.55.73.87,1.28.72.55-.15.87-.73.72-1.28l-32.24-114.42c-.69.11-1.39.22-2.06.31l32.31,114.67Z"/>
    <path class="cls-1" d="m247.14,404.93l-.93-3.32c-.16-.56-.74-.88-1.29-.72-.56.16-.88.74-.72,1.29l.93,3.32c.16.56.74.88,1.29.72.56-.16.88-.74.72-1.29Z"/>
    <path class="cls-1" d="m248.56,411.12c-.16-.56-.74-.88-1.29-.72-.56.16-.88.74-.72,1.29l.68,2.43c.16.56.74.88,1.29.72.56-.16.88-.74.72-1.29l-.68-2.43Z"/>
    <path class="cls-1" d="m210.52,283.42l16.56,105.24c.08.51.56.87,1.08.78.51-.08.87-.56.79-1.08l-16.76-106.5c-.6.08-1.18.15-1.76.22l.09,1.32Z"/>
    <path class="cls-1" d="m228.88,392.04c-.52.09-.86.59-.77,1.11l.56,3.09c.09.52.59.86,1.11.77s.86-.59.77-1.11l-.56-3.09c-.09-.52-.59-.86-1.11-.77Z"/>
    <path class="cls-1" d="m208.93,282.28l6.28,87.43c.03.41.39.72.8.7s.72-.39.7-.8l-6.19-86.18-.21-1.31c-.46.06-.93.12-1.38.17Z"/>
    <path class="cls-1" d="m210.31,282.11l.21,1.31-.09-1.32s-.07,0-.11.01Z"/>
    <path class="cls-1" d="m210.31,282.11l.21,1.31-.09-1.32s-.07,0-.11.01Z"/>
    <path class="cls-1" d="m216.01,373.54c-.43.08-.72.49-.64.92l.47,2.58c.08.43.49.72.92.64.43-.08.72-.49.64-.92l-.47-2.58c-.08-.43-.49-.72-.92-.64Z"/>
    <path class="cls-1" d="m210.55,396.62c.03.56.5.99,1.06.96h.05c.56-.03.99-.5.96-1.06l-5.42-114.07c-.71.07-1.4.13-2.06.18l5.42,113.99Z"/>
    <path class="cls-1" d="m211.99,400.69h-.05c-.56.03-1,.51-.97,1.07l.15,3.23c.03.56.51,1,1.07.97h.05c.56-.03,1-.51.97-1.07l-.15-3.23c-.03-.56-.51-1-1.07-.97Z"/>
    <path class="cls-1" d="m200.38,418.4c0,.63.49,1.15,1.12,1.16h.15c.63.01,1.15-.49,1.16-1.12l2.02-135.79c-.85.06-1.66.12-2.43.16l-2.02,135.59Z"/>
    <rect class="cls-1" x="198.94" y="427.61" width="6.31" height="2.46" rx="1.15" ry="1.15" transform="translate(-229.68 624.59) rotate(-89.15)"/>
    <path class="cls-1" d="m203.82,140.99c.06-.13.09-.26.09-.41V25.12c0-.55-.44-.99-.99-.99s-.99.44-.99.99v115.47c0,.15.04.28.09.41h1.71s.06,0,.09,0Z"/>
    <path class="cls-1" d="m202.73,20.98c.56,0,1.01-.45,1.01-1.01v-3.31c0-.56-.45-1.01-1.01-1.01s-1.01.45-1.01,1.01v3.31c0,.56.45,1.01,1.01,1.01Z"/>
    <path class="cls-1" d="m203.03,11.57c.56,0,1.01-.45,1.01-1.01v-2.42c0-.56-.45-1.01-1.01-1.01s-1.01.45-1.01,1.01v2.42c0,.56.45,1.01,1.01,1.01Z"/>
    <path class="cls-1" d="m206.95,140.71l4.61-105.15c.02-.5-.37-.92-.87-.94-.5-.02-.92.37-.94.87l-4.61,105.15c0,.13.02.26.07.37.55,0,1.1.01,1.66.03.04-.1.07-.21.08-.32Z"/>
    <path class="cls-1" d="m210.65,31.74c.51.02.93-.37.96-.88l.13-3.01c.02-.51-.37-.93-.88-.96-.51-.02-.93.37-.96.88l-.13,3.01c-.02.51.37.93.88.96Z"/>
    <path class="cls-1" d="m219.34,56.56c.04-.4-.24-.75-.64-.79-.4-.04-.75.24-.79.64l-9.16,84.64s.01.02.01.04c.47.02.95.04,1.43.07l9.15-84.59Z"/>
    <path class="cls-1" d="m218.83,51.2c.42,0,.76-.34.76-.76v-2.51c0-.42-.34-.76-.76-.76s-.76.34-.76.76v2.51c0,.42.34.76.76.76Z"/>
    <path class="cls-1" d="m230.42,33.33c.08-.53-.28-1.02-.81-1.1h-.05c-.53-.09-1.02.28-1.1.81l-16.34,108.22c.66.04,1.32.09,1.99.14l16.32-108.06Z"/>
    <path class="cls-1" d="m229.83,29.22h.05c.54.09,1.04-.28,1.12-.82l.46-3.07c.08-.54-.29-1.04-.82-1.12h-.05c-.54-.09-1.04.28-1.12.82l-.46,3.07c-.08.54.29,1.04.82,1.12Z"/>
    <path class="cls-1" d="m242.14,13.18c.11-.59-.29-1.16-.89-1.27l-.14-.03c-.59-.11-1.16.29-1.27.89l-22.89,128.88c.77.08,1.54.18,2.32.28L242.14,13.18Z"/>
    <rect class="cls-1" x="239.09" y="1.83" width="6.06" height="2.36" rx="1.11" ry="1.11" transform="translate(196.83 240.88) rotate(-79.93)"/>
    <path class="cls-1" d="m236.6,74.81c.07-.32-.13-.64-.43-.71-.31-.07-.61.13-.68.45l-14.43,67.62c.38.05.75.11,1.13.17l14.41-67.53Z"/>
    <path class="cls-1" d="m237.31,67.8l-.38,2.59c-.06.44.22.84.64.91.42.07.81-.23.87-.67l.38-2.59c.06-.44-.22-.84-.64-.91-.42-.07-.81.23-.87.67Z"/>
    <path class="cls-1" d="m239.74,63.54l.38-2.59c.06-.44-.22-.84-.64-.91-.42-.07-.81.23-.87.67l-.38,2.59c-.06.44.22.84.64.91.42.07.81-.23.87-.67Z"/>
    <path class="cls-1" d="m252.61,49.96c.14-.46-.13-.95-.59-1.09l-.06-.02c-.46-.14-.95.13-1.09.59l-27.43,93.1c.6.1,1.19.21,1.79.33l27.37-92.92Z"/>
    <path class="cls-1" d="m251.85,43.16h2.75c.49,0,.89.4.89.89v.06c0,.49-.4.89-.89.89h-2.75c-.49,0-.89-.4-.89-.89v-.06c0-.49.4-.89.89-.89Z" transform="translate(139.1 274.39) rotate(-73.51)"/>
    <path class="cls-1" d="m246.44,95.26c.09-.23-.21-.57-.66-.75-.45-.18-.88-.13-.97.1l-17.86,48.61c.57.12,1.15.24,1.72.38l17.76-48.34Z"/>
    <path class="cls-1" d="m246.59,88.24h2.75c.49,0,.89.4.89.89v.06c0,.49-.4.89-.89.89h-2.75c-.49,0-.89-.4-.89-.89v-.06c0-.49.4-.89.89-.89Z" transform="translate(92.37 301.82) rotate(-73.58)"/>
    <path class="cls-1" d="m274.36,38.79c.2-.51-.05-1.09-.56-1.29-.51-.2-1.09.05-1.29.56l-42.16,105.97c.65.17,1.29.33,1.93.51l42.07-105.75Z"/>
    <path class="cls-1" d="m274.81,34.48c.52.21,1.1-.05,1.31-.56l1.24-3.12c.21-.52-.05-1.1-.56-1.31-.52-.21-1.1.05-1.31.56l-1.24,3.12c-.21.52.05,1.1.56,1.31Z"/>
    <path class="cls-1" d="m278.59,25.78c.52.21,1.1-.05,1.31-.56l.91-2.28c.21-.52-.05-1.1-.56-1.31-.52-.21-1.1.05-1.31.56l-.91,2.28c-.21.52.05,1.1.56,1.31Z"/>
    <path class="cls-1" d="m280.7,48.8c.52.21,1.1-.05,1.31-.56l.91-2.28c.21-.52-.05-1.1-.56-1.31-.52-.21-1.1.05-1.31.56l-.91,2.28c-.21.52.05,1.1.56,1.31Z"/>
    <path class="cls-1" d="m279.31,52.8c.26-.58,0-1.26-.59-1.52-.58-.26-1.26,0-1.52.59l-41.46,93.75c.73.25,1.45.49,2.18.76l41.39-93.59Z"/>
    <path class="cls-1" d="m287.32,47.59c.23-.5.01-1.09-.49-1.32-.5-.23-1.09-.01-1.32.49l-46.04,100.25c.61.25,1.23.5,1.84.76l46.01-100.19Z"/>
    <path class="cls-1" d="m287.98,43.33c.5.23,1.1.01,1.33-.49l1.38-3.01c.23-.5.01-1.1-.49-1.33s-1.1-.01-1.33.49l-1.38,3.01c-.23.5-.01,1.1.49,1.33Z"/>
    <path class="cls-1" d="m292.17,34.91c.5.23,1.1.01,1.33-.49l1.01-2.2c.23-.5.01-1.1-.49-1.33s-1.1-.01-1.33.49l-1.01,2.2c-.23.5-.01,1.1.49,1.33Z"/>
    <path class="cls-1" d="m289.91,60.27c.23-.45.05-.99-.39-1.22s-.99-.05-1.22.39l-45.66,88.94c.55.26,1.09.51,1.63.78l45.64-88.9Z"/>
    <path class="cls-1" d="m292.89,52.1c-.45-.23-1-.05-1.23.4l-1.38,2.68c-.23.45-.05,1,.4,1.23.45.23,1,.05,1.23-.4l1.38-2.68c.23-.45.05-1-.4-1.23Z"/>
    <path class="cls-1" d="m288.22,82.6c.2-.34.09-.78-.25-.99-.34-.2-.78-.09-.99.25l-40.79,68.32c.42.23.84.47,1.25.72l40.78-68.3Z"/>
    <path class="cls-1" d="m290.66,74.21l-1.05,2.28c-.18.38,0,.84.38,1.01s.84,0,1.01-.38l1.05-2.28c.18-.38,0-.84-.38-1.01-.38-.18-.84,0-1.01.38Z"/>
    <path class="cls-1" d="m307.98,66.11c.29-.45.17-1.05-.28-1.34l-.04-.03c-.45-.29-1.05-.17-1.34.28l-57.04,86.99c.56.35,1.1.74,1.65,1.11l57.05-87.01Z"/>
    <path class="cls-1" d="m309.01,59.01h3.11c.54,0,.98.44.98.98v.05c0,.54-.44.98-.98.98h-3.11c-.54,0-.98-.44-.98-.98v-.05c0-.54.44-.98.98-.98Z" transform="translate(89.87 286.62) rotate(-56.69)"/>
    <path class="cls-1" d="m327.04,52.69c.34-.5.22-1.18-.28-1.52l-.12-.08c-.5-.34-1.18-.22-1.52.28l-71.78,103.52c.61.48,1.23.96,1.82,1.46l71.87-103.66Z"/>
    <path class="cls-1" d="m329.34,42.26h3.85c.61,0,1.11.5,1.11,1.11v.15c0,.61-.5,1.11-1.11,1.11h-3.85c-.61,0-1.11-.5-1.11-1.11v-.15c0-.61.5-1.11,1.11-1.11Z" transform="translate(106.81 290.92) rotate(-55.26)"/>
    <path class="cls-1" d="m297.29,107.2c.21-.25.18-.63-.07-.83-.24-.2-.6-.16-.81.09l-40.62,50.46c.29.25.57.5.85.76l40.64-50.48Z"/>
    <path class="cls-1" d="m299.86,100.31l-1.42,2.2c-.24.37-.15.86.2,1.09.35.23.83.12,1.07-.25l1.42-2.2c.24-.37.15-.86-.2-1.09-.35-.23-.83-.12-1.07.25Z"/>
    <path class="cls-1" d="m306.19,94.55l-1.42,2.2c-.24.37-.15.86.2,1.09s.83.12,1.07-.25l1.42-2.2c.24-.37.15-.86-.2-1.09-.35-.23-.83-.12-1.07.25Z"/>
    <path class="cls-1" d="m321.21,90.49c.32-.36.28-.92-.08-1.23l-.05-.04c-.36-.32-.92-.28-1.23.08l-61.25,70.27c.42.43.85.85,1.27,1.31l61.36-70.39Z"/>
    <rect class="cls-1" x="321.96" y="84.48" width="4.53" height="1.83" rx=".89" ry=".89" transform="translate(46.81 273.69) rotate(-48.92)"/>
    <path class="cls-1" d="m345.63,89.41c.4-.38.41-1.01.03-1.4-.38-.4-1.01-.41-1.4-.03l-80.94,77.19c.39.54.79,1.07,1.16,1.64l81.15-77.38Z"/>
    <path class="cls-1" d="m349.26,85.72l2.43-2.31c.4-.38.42-1.02.03-1.42-.38-.4-1.02-.42-1.42-.03l-2.43,2.31c-.4.38-.42,1.02-.03,1.42.38.4,1.02.42,1.42.03Z"/>
    <path class="cls-1" d="m356.32,79.39l1.78-1.7c.4-.38.42-1.02.03-1.42-.38-.4-1.02-.42-1.42-.03l-1.78,1.7c-.4.38-.42,1.02-.03,1.42.38.4,1.02.42,1.42.03Z"/>
    <path class="cls-1" d="m351.77,95.48c.41-.37.44-1,.07-1.4-.37-.41-1-.44-1.4-.07l-84.06,75.81c.34.58.66,1.19.98,1.79l84.41-76.13Z"/>
    <path class="cls-1" d="m354,93.48l2.46-2.22c.41-.37.45-1.01.07-1.42s-1.01-.45-1.42-.07l-2.46,2.22c-.41.37-.45,1.01-.07,1.42s1.01.45,1.42.07Z"/>
    <path class="cls-1" d="m361.18,87.4l1.8-1.62c.41-.37.45-1.01.07-1.42s-1.01-.45-1.42-.07l-1.8,1.62c-.41.37-.45,1.01-.07,1.42s1.01.45,1.42.07Z"/>
    <path class="cls-1" d="m269.6,175.47l79.79-68.64c.38-.33.42-.9.1-1.28-.33-.38-.9-.42-1.28-.1l-79.65,68.52c.26.54.51,1.09.76,1.65.1-.04.2-.09.28-.16Z"/>
    <path class="cls-1" d="m353.49,101.18l-2.24,2.02c-.38.34-.41.92-.07,1.3s.92.41,1.3.07l2.24-2.02c.38-.34.41-.92.07-1.3s-.92-.41-1.3-.07Z"/>
    <path class="cls-1" d="m339.24,129.77c.32-.23.4-.68.16-1.01-.23-.32-.68-.4-1.01-.16l-68.15,49.28c.18.46.36.92.53,1.4l68.47-49.51Z"/>
    <path class="cls-1" d="m344.8,123.03l-1.87,1.68c-.31.28-.34.77-.06,1.08s.77.34,1.08.06l1.87-1.68c.31-.28.34-.77.06-1.08s-.77-.34-1.08-.06Z"/>
    <path class="cls-1" d="m360.38,124.57c.44-.3.55-.91.25-1.35l-.03-.04c-.3-.44-.91-.55-1.35-.25l-87.28,59.95c.2.66.41,1.32.6,2l87.81-60.31Z"/>
    <path class="cls-1" d="m362.97,121.33l.03.04c.31.45.92.56,1.37.25l2.56-1.76c.45-.31.56-.92.25-1.37l-.03-.04c-.31-.45-.92-.56-1.37-.25l-2.56,1.76c-.45.31-.56.92-.25,1.37Z"/>
    <path class="cls-1" d="m383.3,121.86c.52-.31.69-.98.38-1.5l-.08-.13c-.31-.52-.98-.69-1.5-.38l-109.41,65.52c.2.78.39,1.57.58,2.37l110.03-65.89Z"/>
    <path class="cls-1" d="m389.04,114h3.85c.61,0,1.11.5,1.11,1.11v.15c0,.61-.5,1.11-1.11,1.11h-3.85c-.61,0-1.11-.5-1.11-1.11v-.15c0-.61.5-1.11,1.11-1.11Z" transform="translate(-3.64 217.21) rotate(-30.91)"/>
    <path class="cls-1" d="m333.82,159.38c.29-.15.42-.5.28-.78-.14-.28-.48-.4-.78-.25l-59.89,30.09c.08.38.16.77.24,1.16l60.14-30.22Z"/>
    <path class="cls-1" d="m339.01,154.17l-2.21,1.41c-.37.24-.49.72-.27,1.08.22.36.7.46,1.08.22l2.21-1.41c.37-.24.49-.72.27-1.08-.22-.36-.7-.46-1.08-.22Z"/>
    <path class="cls-1" d="m346.15,150.26l-2.21,1.41c-.37.24-.49.72-.27,1.08s.7.46,1.08.22l2.21-1.41c.37-.24.49-.72.27-1.08s-.7-.46-1.08-.22Z"/>
    <path class="cls-1" d="m363.69,155.13c.48-.2.71-.76.5-1.24l-.07-.16c-.2-.48-.76-.71-1.24-.5l-88.99,37.52c.13.69.26,1.37.38,2.08l89.41-37.7Z"/>
    <rect class="cls-1" x="366.41" y="150.64" width="4.6" height="2.09" rx=".96" ry=".96" transform="translate(-29.97 155.17) rotate(-22.86)"/>
    <path class="cls-1" d="m318.09,179.73c.23-.08.3-.52.15-.98s-.47-.76-.7-.68l-43.11,15.61c.09.58.15,1.19.23,1.78l43.44-15.73Z"/>
    <path class="cls-1" d="m322.38,176.06h2.75c.49,0,.89.4.89.89v.06c0,.49-.4.89-.89.89h-2.75c-.49,0-.89-.4-.89-.89v-.06c0-.49.4-.89.89-.89Z" transform="translate(-43.81 144.82) rotate(-23.66)"/>
    <path class="cls-1" d="m383.61,167.53c.53-.15.84-.7.69-1.23-.15-.53-.7-.84-1.23-.69l-108.33,30.51c.08.66.18,1.31.25,1.99l108.62-30.59Z"/>
    <path class="cls-1" d="m388.55,165.96l3.23-.91c.53-.15.85-.71.7-1.24s-.71-.85-1.24-.7l-3.23.91c-.53.15-.85.71-.7,1.24s.71.85,1.24.7Z"/>
    <path class="cls-1" d="m397.75,163.68l2.37-.67c.53-.15.85-.71.7-1.24-.15-.53-.71-.85-1.24-.7l-2.37.67c-.53.15-.85.71-.7,1.24.15.53.71.85,1.24.7Z"/>
    <path class="cls-1" d="m381.1,179.98c.05.55.54.96,1.1.91l2.45-.23c.55-.05.96-.54.91-1.1-.05-.55-.54-.96-1.1-.91l-2.45.23c-.55.05-.96.54-.91,1.1Z"/>
    <path class="cls-1" d="m375.95,181.93c.62-.12,1.03-.73.91-1.35s-.73-1.03-1.35-.91l-100.4,19.62c.07.75.11,1.54.17,2.31l100.67-19.67Z"/>
    <path class="cls-1" d="m377.25,293.66c.51.25,1.13.04,1.39-.47.25-.51.04-1.13-.47-1.39l-107.15-52.99c-.23.66-.46,1.32-.71,1.96l106.94,52.88Z"/>
    <path class="cls-1" d="m386.15,295.53l-3.09-1.53c-.52-.26-1.15-.04-1.4.47-.26.52-.04,1.15.47,1.4l3.09,1.53c.52.26,1.15.04,1.4-.47s.04-1.15-.47-1.4Z"/>
    <path class="cls-1" d="m400.39,320.27l-2.14-1.33c-.49-.3-1.14-.15-1.44.34-.3.49-.15,1.14.34,1.44l2.14,1.33c.49.3,1.14.15,1.44-.34.3-.49.15-1.14-.34-1.44Z"/>
    <path class="cls-1" d="m363.97,295.97c.46.25,1.03.08,1.28-.37.25-.46.08-1.03-.37-1.28l-95.09-52.32c-.24.59-.48,1.18-.74,1.75l94.91,52.23Z"/>
    <path class="cls-1" d="m369.25,296.51c-.46-.25-1.04-.09-1.3.38-.25.46-.09,1.04.38,1.3l2.75,1.51c.46.25,1.04.09,1.3-.38.25-.46.09-1.04-.38-1.3l-2.75-1.51Z"/>
    <path class="cls-1" d="m340.79,293.55c.35.22.81.12,1.04-.23.22-.35.12-.81-.23-1.04l-73.36-46.72c-.22.46-.47.89-.7,1.34l73.25,46.65Z"/>
    <path class="cls-1" d="m347.1,295.18c-.39-.19-.87-.03-1.07.36-.19.39-.03.87.36,1.07l2.35,1.16c.39.19.87.03,1.07-.36.19-.39.03-.87-.36-1.07l-2.35-1.16Z"/>
    <path class="cls-1" d="m357.35,314.61c.46.32,1.09.21,1.41-.25l.03-.04c.32-.46.21-1.09-.25-1.41l-91.97-64.16c-.34.61-.7,1.2-1.06,1.79l91.84,64.07Z"/>
    <path class="cls-1" d="m361.46,315.95l-.03.04c-.32.46-.21,1.1.25,1.42l2.65,1.85c.46.32,1.1.21,1.42-.25l.03-.04c.32-.46.21-1.1-.25-1.42l-2.65-1.85c-.46-.32-1.1-.21-1.42.25Z"/>
    <path class="cls-1" d="m370.75,334.84c.51.37,1.22.26,1.59-.24l.09-.12c.37-.51.26-1.22-.24-1.59l-108.29-79.79c-.46.68-.95,1.32-1.43,1.97l108.27,79.78Z"/>
    <path class="cls-1" d="m380.17,336.37h.15c.64,0,1.15.52,1.15,1.15v4c0,.64-.52,1.15-1.15,1.15h-.15c-.64,0-1.15-.52-1.15-1.15v-4c0-.64.52-1.15,1.15-1.15Z" transform="translate(-118.69 444.06) rotate(-53.6)"/>
    <path class="cls-1" d="m314.92,302.26c.26.22.65.2.86-.04.22-.25.19-.62-.07-.84l-53.63-45.77c-.24.32-.47.64-.71.95l53.55,45.71Z"/>
    <path class="cls-1" d="m318.62,303.76c-.25.36-.15.86.22,1.12l2.25,1.55c.38.26.89.18,1.14-.18.25-.36.15-.86-.22-1.12l-2.25-1.55c-.38-.26-.89-.18-1.14.18Z"/>
    <path class="cls-1" d="m324.42,310.53c-.25.36-.15.86.22,1.12l2.25,1.55c.38.26.89.18,1.14-.18.25-.36.15-.86-.22-1.12l-2.25-1.55c-.38-.26-.89-.18-1.14.18Z"/>
    <path class="cls-1" d="m331.59,327.65c.37.34.95.32,1.29-.05l.04-.05c.34-.37.32-.95-.05-1.29l-73.24-67.65c-.41.48-.82.96-1.25,1.41l73.21,67.62Z"/>
    <path class="cls-1" d="m336.77,328.58h.06c.51,0,.92.41.92.92v2.86c0,.51-.41.92-.92.92h-.06c-.51,0-.92-.41-.92-.92v-2.87c0-.51.41-.92.92-.92Z" transform="translate(-134.8 354.18) rotate(-47.32)"/>
    <path class="cls-1" d="m331.98,353.1c.38.42,1.04.46,1.46.08s.46-1.04.08-1.46l-79.05-87.81c-.52.46-1.06.89-1.59,1.33l79.1,87.87Z"/>
    <path class="cls-1" d="m337.27,355.58c-.39-.43-1.05-.46-1.48-.08-.43.39-.46,1.05-.08,1.48l2.34,2.59c.39.43,1.05.46,1.48.08s.46-1.05.08-1.48l-2.34-2.59Z"/>
    <path class="cls-1" d="m343.65,363.12c-.39-.43-1.05-.46-1.48-.08-.43.39-.46,1.05-.08,1.48l1.71,1.9c.39.43,1.05.46,1.48.08.43-.39.46-1.05.08-1.48l-1.71-1.9Z"/>
    <path class="cls-1" d="m322.83,357.85c.43-.39.46-1.05.08-1.48l-1.71-1.9c-.39-.43-1.05-.46-1.48-.08-.43.39-.46,1.05-.08,1.48l1.71,1.9c.39.43,1.05.46,1.48.08Z"/>
    <path class="cls-1" d="m316.62,351.25c.42.51,1.18.58,1.69.15.51-.42.58-1.18.15-1.69l-68.53-82.17c-.65.48-1.29.96-1.94,1.41l68.64,82.3Z"/>
    <path class="cls-1" d="m317.79,361.13c.36.44,1.01.51,1.46.15.44-.36.51-1.01.15-1.46l-72.88-89.93c-.59.38-1.17.75-1.76,1.11l73.04,90.13Z"/>
    <path class="cls-1" d="m322.93,363.86c-.36-.45-1.02-.52-1.47-.15-.45.36-.52,1.02-.15,1.47l2.17,2.68c.36.45,1.02.52,1.47.15.45-.36.52-1.02.15-1.47l-2.17-2.68Z"/>
    <path class="cls-1" d="m328.85,371.66c-.36-.45-1.02-.52-1.47-.15-.45.36-.52,1.02-.15,1.47l1.59,1.96c.36.45,1.02.52,1.47.15.45-.36.52-1.02.15-1.47l-1.59-1.96Z"/>
    <path class="cls-1" d="m309.33,360.38c-.31-.42-.91-.51-1.34-.2-.42.31-.51.91-.2,1.34l1.87,2.52c.31.42.91.51,1.34.2.42-.31.51-.91.2-1.34l-1.87-2.52Z"/>
    <path class="cls-1" d="m383.91,189.66c.53-.08.89-.58.81-1.11v-.05c-.09-.53-.58-.89-1.11-.81l-108.15,16.62c.03.65.03,1.34.05,2l108.4-16.66Z"/>
    <path class="cls-1" d="m406.72,195.84c-.05-.6-.59-1.05-1.19-.99l-130.01,11.76c.02.78.05,1.54.05,2.34l130.17-11.77c.6-.05,1.05-.59.99-1.19v-.15Z"/>
    <path class="cls-1" d="m275.56,210.6l69.31-1.13c.33,0,.59-.27.6-.58,0-.32-.26-.57-.59-.56l-69.3,1.13c0,.09,0,.18,0,.28,0,.3-.02.57-.03.87Z"/>
    <path class="cls-1" d="m349.2,207.35c-.44.05-.75.44-.71.86s.44.72.87.67l2.6-.31c.44-.05.75-.44.71-.86s-.44-.72-.87-.67l-2.6.31Z"/>
    <path class="cls-1" d="m357.34,206.93c-.44.05-.75.44-.71.86.05.42.44.72.87.67l2.6-.31c.44-.05.75-.44.71-.86s-.44-.72-.87-.67l-2.6.31Z"/>
    <path class="cls-1" d="m373.62,218.62c.52.03.96-.37.99-.89v-.17c.04-.52-.37-.96-.89-.99l-98.19-4.95c-.01.7-.04,1.38-.06,2.06l98.15,4.95Z"/>
    <path class="cls-1" d="m379.55,215.4h.18c.53,0,.96.43.96.96v2.69c0,.53-.43.96-.96.96h-.18c-.53,0-.96-.43-.96-.96v-2.69c0-.53.43-.96.96-.96Z" transform="translate(143.28 586.01) rotate(-87.14)"/>
    <path class="cls-1" d="m386.18,238.45c.54.1,1.06-.27,1.15-.81.1-.54-.27-1.06-.81-1.15l-111.17-19.64c-.04.68-.14,1.31-.19,1.98l111.02,19.61Z"/>
    <path class="cls-1" d="m394.96,237.78l-3.3-.58c-.55-.1-1.07.27-1.17.82-.1.55.27,1.07.82,1.17l3.3.58c.55.1,1.07-.27,1.17-.82.1-.55-.27-1.07-.82-1.17Z"/>
    <path class="cls-1" d="m403.36,239.57l-2.42-.43c-.55-.1-1.07.27-1.17.82s.27,1.07.82,1.17l2.42.43c.55.1,1.07-.27,1.17-.82.1-.55-.27-1.07-.82-1.17Z"/>
    <path class="cls-1" d="m379.8,247.97c-.52-.19-1.1.07-1.29.59-.19.52.07,1.1.59,1.29l2.31.85c.52.19,1.1-.07,1.29-.59.19-.52-.07-1.1-.59-1.29l-2.31-.85Z"/>
    <path class="cls-1" d="m373.02,248.08c.61.16,1.24-.21,1.4-.82.16-.61-.21-1.24-.82-1.4l-98.56-25.84c-.08.77-.13,1.57-.23,2.32l98.2,25.74Z"/>
    <path class="cls-1" d="m386.96,261.16c.54.17,1.13-.13,1.3-.67.17-.54-.13-1.13-.67-1.3l-112.9-35.76c-.1.71-.24,1.37-.35,2.06l112.62,35.67Z"/>
    <path class="cls-1" d="m374.19,265.46c.49.18,1.03-.07,1.21-.56s-.07-1.03-.56-1.21l-100.73-36.83c-.11.63-.2,1.28-.32,1.89l100.4,36.71Z"/>
    <path class="cls-1" d="m383.01,267.49c.18-.5-.07-1.04-.57-1.22l-2.95-1.08c-.5-.18-1.04.07-1.22.57-.18.5.07,1.04.57,1.22l2.95,1.08c.5.18,1.04-.07,1.22-.57Z"/>
    <path class="cls-1" d="m350.91,266.59c.38.17.82,0,.99-.38.17-.38,0-.82-.38-.99l-78.19-34.4c-.11.5-.24.99-.37,1.48l77.95,34.3Z"/>
    <path class="cls-1" d="m357.39,267.24c-.42-.13-.87.1-1,.52-.13.42.1.87.52,1l2.5.79c.42.13.87-.1,1-.52.13-.42-.1-.87-.52-1l-2.5-.79Z"/>
    <path class="cls-1" d="m318.6,258.4c.24.11.6-.18.82-.63.22-.45.2-.91-.04-1.01l-47.35-21.01c-.18.59-.38,1.16-.57,1.74l47.14,20.92Z"/>
    <path class="cls-1" d="m324.81,258.05h.06c.51,0,.92.41.92.92v2.87c0,.51-.41.92-.92.92h-.06c-.51,0-.92-.41-.92-.92v-2.87c0-.51.41-.92.92-.92Z" transform="translate(-31.67 475.43) rotate(-69.81)"/>
    <path class="cls-1" d="m273.52,208.03v-.15c-.07-.6.38-1.13.98-1.19l1.02-.09c0-.09,0-.19,0-.28l-.36.05c-.53.08-1.03-.28-1.11-.81v-.05c-.09-.53.27-1.03.8-1.11l.61-.09c-.04-.93-.12-1.82-.19-2.72l-2.34.46c-.62.12-1.23-.28-1.35-.91s.28-1.23.91-1.35l2.61-.51c-.04-.39-.08-.78-.12-1.16l-3.44.97c-.53.15-1.08-.16-1.23-.69-.15-.53.16-1.08.69-1.23l3.73-1.05c-.03-.22-.05-.45-.08-.67l-6.62,2.4c-.23.08-.55-.22-.7-.68-.15-.46-.09-.9.15-.98l6.94-2.51c-.05-.29-.11-.56-.16-.85l-2.42,1.02c-.48.2-1.03-.02-1.24-.5l-.07-.16c-.2-.48.02-1.03.5-1.24l2.85-1.2c-.07-.38-.13-.78-.21-1.16l-2.38,1.2c-.29.15-.64.04-.78-.25-.14-.28,0-.63.28-.78l2.63-1.32c-.05-.24-.12-.46-.17-.7l-2.85,1.7c-.52.31-1.19.14-1.5-.38l-.08-.13c-.31-.52-.14-1.19.38-1.5l3.47-2.08c-.04-.16-.08-.33-.12-.49l-2.9,1.99c-.44.3-1.05.19-1.35-.25l-.03-.04c-.3-.44-.19-1.05.25-1.35l3.42-2.35c-.37-1.24-.77-2.44-1.2-3.61l-.52.38c-.32.23-.77.16-1.01-.16s-.16-.77.16-1.01l.83-.6c-.3-.76-.6-1.52-.93-2.25-.34.13-.74.04-.99-.25-.33-.38-.28-.95.1-1.28l.14-.12c-.39-.81-.79-1.6-1.2-2.38l-1.33,1.2c-.41.37-1.04.34-1.4-.07-.37-.41-.34-1.04.07-1.4l1.69-1.52c-.61-1.04-1.24-2.04-1.89-3.01l-3.11,2.96c-.4.38-1.03.36-1.4-.03-.38-.4-.36-1.03.03-1.4l3.32-3.16c-.36-.49-.71-.98-1.07-1.45l-3.1,3.12c-.18.18-.59.04-.92-.31-.33-.35-.46-.78-.29-.95l3.18-3.2c-.42-.5-.84-1.01-1.27-1.49l-3.11,3.57c-.32.36-.87.4-1.23.08l-.05-.04c-.36-.32-.4-.87-.08-1.23l3.21-3.68c-.63-.65-1.28-1.28-1.93-1.88l-3.24,4.02c-.21.26-.57.3-.81.09-.24-.2-.27-.57-.07-.83l3.26-4.05c-.21-.19-.42-.39-.64-.57l-3.09,4.46c-.34.5-1.03.62-1.52.28l-.12-.08c-.5-.34-.62-1.03-.28-1.52l3.19-4.6c-.79-.61-1.59-1.2-2.41-1.76l-3.28,5.01c-.29.45-.9.57-1.34.28l-.04-.03c-.45-.29-.57-.9-.28-1.34l3.3-5.03c-.61-.39-1.23-.75-1.85-1.11l-2.86,4.79c-.2.34-.65.45-.99.25-.34-.2-.45-.65-.25-.99l2.85-4.77c-.64-.35-1.28-.69-1.92-1.01l-2.43,4.73c-.23.44-.77.62-1.22.39-.44-.23-.62-.77-.39-1.22l2.41-4.69c-.44-.21-.88-.42-1.32-.61l-2.18,4.74c-.23.5-.82.72-1.32.49s-.72-.82-.49-1.32l2.15-4.68c-.52-.21-1.04-.43-1.56-.63l-1.06,2.4c-.26.58-.94.84-1.52.59-.58-.26-.84-.94-.59-1.52l.99-2.24c-1.15-.39-2.3-.75-3.45-1.08l-.96,2.43c-.2.51-.78.76-1.29.56-.51-.2-.76-.78-.56-1.29l.88-2.2c-.56-.14-1.12-.29-1.68-.42l-.6,1.63c-.09.23-.52.28-.97.1-.45-.18-.74-.51-.66-.75l.5-1.36c-.57-.12-1.14-.24-1.71-.35l-.35,1.19c-.14.46-.62.73-1.09.59l-.06-.02c-.46-.14-.73-.62-.59-1.09l.3-1.01c-.42-.07-.84-.14-1.27-.21l-.19.9c-.07.32-.37.52-.68.45-.31-.07-.5-.39-.43-.71l.17-.81c-.6-.09-1.19-.17-1.78-.25l-.14.8c-.11.59-.67.99-1.27.89l-.14-.03c-.59-.11-.99-.67-.89-1.27l.12-.66c-.96-.1-1.91-.19-2.85-.26l-.11.74c-.08.53-.57.89-1.1.81h-.05c-.53-.09-.89-.58-.81-1.11l.09-.58c-.65-.04-1.29-.07-1.93-.1v.05c-.05.4-.4.68-.8.64-.38-.04-.65-.38-.63-.76-.64-.02-1.27-.04-1.89-.05-.15.33-.48.56-.87.55-.37-.02-.67-.25-.8-.57-.46,0-.93-.01-1.38-.01-.16.34-.5.58-.9.58s-.74-.24-.9-.58h-56.86v141.96h47.93c1.2,0,4.59.1,9.3-.15l.02-1.37c0-.63.53-1.13,1.16-1.12h.15c.63.01,1.13.53,1.12,1.16l-.02,1.17c.1,0,.2-.01.3-.02l-.02-.44c-.03-.56.4-1.03.96-1.06h.05c.56-.03,1.03.4,1.06.96l.02.36c.58-.05,1.14-.1,1.74-.17l-.07-.97c-.03-.41.28-.77.7-.8.2-.01.39.06.53.18l-.04-.26c-.08-.51.27-1,.78-1.08.51-.08,1,.27,1.08.79l.27,1.74s.1-.02.14-.02l-.29-1.04c-.15-.55.17-1.12.72-1.28.55-.15,1.12.17,1.28.72l.36,1.28c.52-.08,1.05-.17,1.58-.27l-.23-.73c-.17-.55.13-1.13.68-1.3s1.13.13,1.3.68l.3.96c.57-.11,1.15-.24,1.73-.36l-.24-.71c-.08-.25.24-.57.72-.72.48-.15.94-.07,1.02.17l.29.86c.58-.13,1.16-.28,1.74-.43l-.43-1.03c-.19-.46.03-1,.49-1.19l.06-.02c.46-.19,1,.03,1.19.49l.53,1.27c.85-.23,1.71-.49,2.57-.76l-.76-1.63c-.14-.31-.02-.67.29-.8.3-.13.66.01.8.32l.81,1.76c.21-.07.41-.12.62-.19l-1.07-1.94c-.3-.55-.11-1.24.45-1.55l.13-.07c.55-.3,1.24-.11,1.55.45l1.27,2.29c.95-.34,1.9-.71,2.86-1.1l-1.71-2.9c-.28-.48-.12-1.1.36-1.38l.04-.02c.48-.28,1.1-.12,1.38.36l1.85,3.16c.65-.28,1.3-.6,1.95-.91l-1.9-2.94c-.22-.35-.12-.81.22-1.04.35-.22.81-.12,1.04.22l2.01,3.11c.64-.32,1.28-.66,1.91-.99l-2.24-3.03c-.31-.42-.22-1.01.2-1.32.42-.31,1.01-.22,1.32.2l2.4,3.24c.42-.24.85-.48,1.27-.74l-2.65-3.26c-.36-.44-.29-1.1.15-1.46s1.1-.29,1.46.15l2.8,3.46c.49-.32.99-.61,1.48-.94l-1.35-1.62c-.42-.51-.36-1.26.15-1.69.51-.42,1.26-.36,1.69.15l1.46,1.75c1-.74,1.98-1.51,2.95-2.32l-1.99-2.21c-.38-.42-.35-1.08.08-1.46s1.08-.35,1.46.08l2.04,2.27c.45-.4.87-.83,1.31-1.25l-1.77-1.87c-.18-.19-.02-.61.35-.95s.82-.46,1-.27l1.73,1.82c.44-.44.87-.89,1.3-1.35l-1.82-1.68c-.37-.34-.39-.92-.05-1.29l.04-.05c.34-.37.92-.39,1.29-.05l1.79,1.65c.59-.67,1.17-1.35,1.73-2.07l-1.85-1.58c-.26-.22-.29-.6-.07-.84s.61-.26.86-.04l1.78,1.52c.13-.18.27-.35.4-.53l-2-1.47c-.51-.37-.61-1.09-.24-1.59l.09-.12c.37-.51,1.09-.61,1.59-.24l1.99,1.46c.56-.82,1.08-1.69,1.61-2.55l-2.11-1.47c-.46-.32-.57-.95-.25-1.41l.03-.04c.32-.46.95-.57,1.41-.25l1.99,1.38c.33-.6.65-1.23.97-1.85l-1.51-.96c-.35-.22-.45-.69-.23-1.04s.69-.45,1.04-.23l1.4.89c.29-.59.56-1.21.83-1.82l-1.08-.6c-.46-.25-.62-.82-.37-1.28.25-.46.82-.62,1.28-.37l.91.5c.17-.41.35-.8.51-1.22l-.82-.4c-.51-.25-.72-.87-.47-1.39.25-.51.87-.72,1.39-.47l.61.3c.16-.44.3-.9.44-1.34l-3.52-1.56c-.24-.11-.25-.56-.04-1.01.22-.45.58-.74.82-.63l3.31,1.47c.34-1.12.63-2.28.92-3.45l-3.18-1.4c-.38-.17-.55-.61-.38-.99.17-.38.61-.55.99-.38l2.94,1.29c.16-.69.33-1.36.47-2.06l-2.51-.92c-.49-.18-.74-.72-.56-1.21.18-.49.72-.74,1.21-.56l2.18.8c.08-.45.16-.91.23-1.37l-1.98-.63c-.54-.17-.85-.75-.67-1.3.17-.54.75-.85,1.3-.67l1.7.54c.05-.36.08-.73.12-1.09l-3.33-.87c-.61-.16-.98-.79-.82-1.4.16-.61.79-.98,1.4-.82l2.97.78c.04-.39.08-.78.12-1.18l-3.63-.64c-.54-.1-.9-.61-.81-1.15.1-.54.61-.9,1.15-.81l3.48.62c.07-1.02.07-2.12.11-3.17l-1.39-.07c-.52-.03-.92-.47-.89-.99v-.17c.04-.52.48-.92,1-.89l1.35.07c0-.34.03-.67.03-1.01h-.65c-.33.02-.59-.24-.59-.55,0-.32.27-.58.6-.58h.67c0-.19-.01-.35-.01-.53l-.86.08c-.6.05-1.13-.39-1.19-.99Zm-80.89,71.3h-31.41v-134.48h33.9c25.76,0,63.75,9.51,63.75,64.88s-35.27,69.59-66.25,69.59Z"/>
    <path class="cls-1" d="m258.23,166.52c.33.35.75.49.92.31l3.1-3.12c-.37-.46-.75-.9-1.12-1.35l-3.18,3.2c-.18.18-.05.6.29.95Z"/>
    <path class="cls-1" d="m254.35,259.83c-.37.34-.53.76-.35.95l1.77,1.87c.44-.42.88-.83,1.31-1.27l-1.73-1.82c-.18-.19-.63-.07-1,.27Z"/>
    <path class="cls-1" d="m239.76,268.31c-.42.31-.51.9-.2,1.32l2.24,3.03c.56-.3,1.12-.6,1.67-.91l-2.4-3.24c-.31-.42-.9-.51-1.32-.2Z"/>
    <path class="cls-1" d="m236.85,270.31c-.35.22-.45.69-.22,1.04l1.9,2.94c.46-.21.91-.42,1.37-.65l-2.01-3.11c-.22-.35-.69-.45-1.04-.22Z"/>
    <path class="cls-1" d="m233.34,271.69l-.04.02c-.48.28-.64.9-.36,1.38l1.71,2.9c.64-.26,1.29-.51,1.93-.79l-1.85-3.16c-.28-.48-.9-.64-1.38-.36Z"/>
    <path class="cls-1" d="m228.97,274.36l-.13.07c-.55.3-.75,1-.45,1.55l1.07,1.94c.77-.25,1.55-.54,2.32-.82l-1.27-2.29c-.3-.55-1-.75-1.55-.45Z"/>
    <path class="cls-1" d="m227.22,276.03c-.3.13-.43.49-.29.8l.76,1.63c.38-.12.76-.23,1.15-.35l-.81-1.76c-.14-.31-.5-.45-.8-.32Z"/>
    <path class="cls-1" d="m223.4,277.45l-.06.02c-.46.19-.68.73-.49,1.19l.43,1.03c.61-.15,1.22-.31,1.84-.48l-.53-1.27c-.19-.46-.73-.68-1.19-.49Z"/>
    <path class="cls-1" d="m220.22,279.1c-.48.15-.8.47-.72.72l.24.71c.59-.13,1.19-.26,1.79-.4l-.29-.86c-.08-.25-.54-.32-1.02-.17Z"/>
    <path class="cls-1" d="m216.43,279.25c-.55.17-.85.75-.68,1.3l.23.73c.68-.12,1.36-.24,2.05-.38l-.3-.96c-.17-.55-.75-.85-1.3-.68Z"/>
    <path class="cls-1" d="m212.75,279.53c-.55.15-.87.73-.72,1.28l.29,1.04c.67-.1,1.37-.2,2.06-.31l-.36-1.28c-.15-.55-.73-.87-1.28-.72Z"/>
    <path class="cls-1" d="m210.83,279.34c-.51.08-.87.56-.78,1.08l.04.26c.15.13.26.31.27.52l.06.9c.58-.07,1.16-.14,1.76-.22l-.27-1.74c-.08-.51-.56-.87-1.08-.79Z"/>
    <path class="cls-1" d="m210.09,280.68c-.14-.12-.33-.19-.53-.18-.41.03-.72.39-.7.8l.07.97c.45-.05.92-.11,1.38-.17l-.22-1.43Z"/>
    <path class="cls-1" d="m210.42,282.09l-.06-.9c-.02-.21-.12-.39-.27-.52l.22,1.43s.07,0,.11-.01Z"/>
    <path class="cls-1" d="m206.12,281.13h-.05c-.56.03-.99.5-.96,1.06l.02.44c.67-.05,1.36-.11,2.06-.18l-.02-.36c-.03-.56-.5-.99-1.06-.96Z"/>
    <path class="cls-1" d="m203.73,280.32h-.15c-.63-.01-1.15.49-1.16,1.12l-.02,1.37c.78-.04,1.59-.09,2.43-.16l.02-1.17c0-.63-.49-1.15-1.12-1.16Z"/>
    <path class="cls-1" d="m202.92,141.58c.4,0,.74-.24.9-.58-.03,0-.06,0-.09,0h-1.71c.16.34.5.58.9.58Z"/>
    <path class="cls-1" d="m206,141.58c.39.02.72-.21.87-.55-.56-.01-1.12-.02-1.66-.03.13.32.43.56.8.57Z"/>
    <path class="cls-1" d="m209.39,141.84c.4.04.75-.24.79-.64v-.05c-.47-.02-.95-.05-1.42-.07-.02.38.25.72.63.76Z"/>
    <path class="cls-1" d="m212.84,142.94h.05c.53.09,1.02-.28,1.1-.81l.11-.74c-.67-.05-1.33-.1-1.99-.14l-.09.58c-.08.53.28,1.02.81,1.1Z"/>
    <path class="cls-1" d="m217.72,143.58l.14.03c.59.11,1.16-.29,1.27-.89l.14-.8c-.78-.1-1.55-.2-2.32-.28l-.12.66c-.11.59.29,1.16.89,1.27Z"/>
    <path class="cls-1" d="m221.31,143.69c.31.07.61-.13.68-.45l.19-.9c-.38-.06-.75-.12-1.13-.17l-.17.81c-.07.32.13.64.43.71Z"/>
    <path class="cls-1" d="m223.75,144.64l.06.02c.46.14.95-.13,1.09-.59l.35-1.19c-.6-.12-1.2-.23-1.79-.33l-.3,1.01c-.14.46.13.95.59,1.09Z"/>
    <path class="cls-1" d="m227.11,145.34c.45.18.88.13.97-.1l.6-1.63c-.58-.13-1.15-.26-1.72-.38l-.5,1.36c-.09.23.21.57.66.75Z"/>
    <path class="cls-1" d="m230.03,147.53c.51.2,1.09-.05,1.29-.56l.96-2.43c-.64-.18-1.29-.35-1.93-.51l-.88,2.2c-.2.51.05,1.09.56,1.29Z"/>
    <path class="cls-1" d="m235.34,149.38c.58.26,1.26,0,1.52-.59l1.06-2.4c-.72-.27-1.45-.52-2.18-.76l-.99,2.24c-.26.58,0,1.26.59,1.52Z"/>
    <path class="cls-1" d="m237.82,153.01c.5.23,1.09.01,1.32-.49l2.18-4.74c-.61-.27-1.22-.52-1.84-.76l-2.15,4.68c-.23.5-.01,1.09.49,1.32Z"/>
    <path class="cls-1" d="m240.62,154.29c.45.23.99.05,1.22-.39l2.43-4.73c-.54-.27-1.09-.53-1.63-.78l-2.41,4.69c-.23.44-.05.99.39,1.22Z"/>
    <path class="cls-1" d="m243.59,155.95c.34.2.78.09.99-.25l2.86-4.79c-.42-.24-.83-.49-1.25-.72l-2.85,4.77c-.2.34-.09.78.25.99Z"/>
    <path class="cls-1" d="m246.27,158.39l.04.03c.45.29,1.05.17,1.34-.28l3.28-5.01c-.55-.38-1.09-.76-1.65-1.11l-3.3,5.03c-.29.45-.17,1.05.28,1.34Z"/>
    <path class="cls-1" d="m250.43,161.01l.12.08c.5.34,1.18.22,1.52-.28l3.09-4.46c-.6-.51-1.21-.99-1.82-1.46l-3.19,4.6c-.34.5-.22,1.18.28,1.52Z"/>
    <path class="cls-1" d="m252.61,161.8c.24.2.6.16.81-.09l3.24-4.02c-.28-.26-.57-.51-.85-.76l-3.26,4.05c-.21.25-.18.63.07.83Z"/>
    <path class="cls-1" d="m255.46,164.49l.05.04c.36.32.92.28,1.23-.08l3.11-3.57c-.41-.45-.84-.87-1.27-1.31l-3.21,3.68c-.32.36-.28.92.08,1.23Z"/>
    <path class="cls-1" d="m259.97,169.73c.38.4,1.01.41,1.4.03l3.11-2.96c-.38-.56-.77-1.1-1.16-1.64l-3.32,3.16c-.4.38-.41,1.01-.03,1.4Z"/>
    <path class="cls-1" d="m264.62,172.74c.37.41,1,.44,1.4.07l1.33-1.2c-.32-.6-.64-1.21-.98-1.79l-1.69,1.52c-.41.37-.44,1-.07,1.4Z"/>
    <path class="cls-1" d="m268.32,175.38c.25.29.65.38.99.25-.25-.56-.5-1.11-.76-1.65l-.14.12c-.38.33-.42.9-.1,1.28Z"/>
    <path class="cls-1" d="m269.25,179.49c.23.32.68.4,1.01.16l.52-.38c-.17-.47-.35-.93-.53-1.4l-.83.6c-.32.23-.4.68-.16,1.01Z"/>
    <path class="cls-1" d="m268.3,186.59l.03.04c.3.44.91.55,1.35.25l2.9-1.99c-.19-.69-.4-1.34-.6-2l-3.42,2.35c-.44.3-.55.91-.25,1.35Z"/>
    <path class="cls-1" d="m268.85,188.95l.08.13c.31.52.98.69,1.5.38l2.85-1.7c-.18-.8-.37-1.6-.58-2.37l-3.47,2.08c-.52.31-.69.98-.38,1.5Z"/>
    <path class="cls-1" d="m270.52,190.55c.14.28.48.4.78.25l2.38-1.2c-.08-.39-.16-.77-.24-1.16l-2.63,1.32c-.29.15-.42.5-.28.78Z"/>
    <path class="cls-1" d="m270.54,193.19l.07.16c.2.48.76.71,1.24.5l2.42-1.02c-.12-.71-.25-1.39-.38-2.08l-2.85,1.2c-.48.2-.71.76-.5,1.24Z"/>
    <path class="cls-1" d="m267.34,197.18c.15.46.47.76.7.68l6.62-2.4c-.08-.59-.14-1.2-.23-1.78l-6.94,2.51c-.23.08-.3.53-.15.98Z"/>
    <path class="cls-1" d="m270.32,198.41c.15.53.7.84,1.23.69l3.44-.97c-.07-.68-.17-1.33-.25-1.99l-3.73,1.05c-.53.15-.84.7-.69,1.23Z"/>
    <path class="cls-1" d="m271.59,201.15c.12.62.73,1.03,1.35.91l2.34-.46c-.05-.77-.1-1.56-.17-2.31l-2.61.51c-.62.12-1.03.73-.91,1.35Z"/>
    <path class="cls-1" d="m269.02,238.99c-.25.51-.04,1.13.47,1.39l.82.4c.25-.64.48-1.3.71-1.96l-.61-.3c-.51-.25-1.13-.04-1.39.47Z"/>
    <path class="cls-1" d="m267.6,241.87c-.25.46-.08,1.03.37,1.28l1.08.6c.25-.57.49-1.16.74-1.75l-.91-.5c-.46-.25-1.03-.08-1.28.37Z"/>
    <path class="cls-1" d="m265.8,244.91c-.22.35-.12.81.23,1.04l1.51.96c.23-.45.47-.88.7-1.34l-1.4-.89c-.35-.22-.81-.12-1.04.23Z"/>
    <path class="cls-1" d="m263.17,247.62l-.03.04c-.32.46-.21,1.09.25,1.41l2.11,1.47c.36-.59.71-1.18,1.06-1.79l-1.99-1.38c-.46-.32-1.09-.21-1.41.25Z"/>
    <path class="cls-1" d="m260.32,251.88l-.09.12c-.37.51-.26,1.22.24,1.59l2,1.47c.48-.65.97-1.29,1.43-1.97l-1.99-1.46c-.51-.37-1.22-.26-1.59.24Z"/>
    <path class="cls-1" d="m259.43,254.12c-.22.25-.19.62.07.84l1.85,1.58c.24-.31.48-.64.71-.95l-1.78-1.52c-.26-.22-.65-.2-.86.04Z"/>
    <path class="cls-1" d="m256.55,257.01l-.04.05c-.34.37-.32.95.05,1.29l1.82,1.68c.42-.46.83-.94,1.25-1.41l-1.79-1.65c-.37-.34-.95-.32-1.29.05Z"/>
    <path class="cls-1" d="m250.96,261.55c-.42.38-.46,1.04-.08,1.46l1.99,2.21c.53-.44,1.07-.86,1.59-1.33l-2.04-2.27c-.38-.42-1.04-.46-1.46-.08Z"/>
    <path class="cls-1" d="m246.79,265.64c-.51.42-.58,1.18-.15,1.69l1.35,1.62c.66-.45,1.3-.93,1.94-1.41l-1.46-1.75c-.42-.51-1.18-.58-1.69-.15Z"/>
    <path class="cls-1" d="m242.25,266.28c-.44.36-.51,1.01-.15,1.46l2.65,3.26c.59-.35,1.18-.73,1.76-1.11l-2.8-3.46c-.36-.44-1.01-.51-1.46-.15Z"/>
    <path class="cls-1" d="m274.04,205.52v.05c.09.53.58.89,1.11.81l.36-.05c-.02-.66-.02-1.35-.05-2l-.61.09c-.53.08-.89.58-.81,1.11Z"/>
    <path class="cls-1" d="m274.49,206.7c-.6.05-1.05.59-.99,1.19v.15c.07.6.6,1.05,1.2.99l.86-.08c0-.8-.03-1.56-.05-2.34l-1.02.09Z"/>
    <path class="cls-1" d="m274.32,210.05c0,.32.26.57.59.56h.65c0-.31.03-.58.03-.88,0-.09,0-.18,0-.28h-.67c-.33.02-.59.28-.6.59Z"/>
    <path class="cls-1" d="m273.19,212.44v.17c-.04.52.37.96.89.99l1.39.07c.02-.68.05-1.36.06-2.06l-1.35-.07c-.52-.03-.96.37-.99.89Z"/>
    <path class="cls-1" d="m270.72,217.04c-.1.54.27,1.06.81,1.15l3.63.64c.06-.67.15-1.3.19-1.98l-3.48-.62c-.54-.1-1.06.27-1.15.81Z"/>
    <path class="cls-1" d="m270.67,220.06c-.16.61.21,1.24.82,1.4l3.33.87c.09-.75.15-1.55.23-2.32l-2.97-.78c-.61-.16-1.24.21-1.4.82Z"/>
    <path class="cls-1" d="m271.69,223.56c-.17.54.13,1.13.67,1.3l1.98.63c.11-.69.25-1.35.35-2.06l-1.7-.54c-.54-.17-1.13.13-1.3.67Z"/>
    <path class="cls-1" d="m270.72,226.62c-.18.49.07,1.03.56,1.21l2.51.92c.12-.61.21-1.27.32-1.89l-2.18-.8c-.49-.18-1.03.07-1.21.56Z"/>
    <path class="cls-1" d="m269.4,229.9c-.17.38,0,.82.38.99l3.18,1.4c.12-.49.25-.98.37-1.48l-2.94-1.29c-.38-.17-.82,0-.99.38Z"/>
    <path class="cls-1" d="m267.9,234.9c-.22.45-.2.91.04,1.01l3.52,1.56c.19-.58.39-1.14.57-1.74l-3.31-1.47c-.24-.11-.6.18-.82.63Z"/>
  </g>
</svg>